<svg width="800" height="800" viewBox="0 0 800 800" fill="none" xmlns="http://www.w3.org/2000/svg">
<g clip-path="url(#clip0_86_586)">
<path d="M400 -0.0324707C320.888 -0.0324707 243.552 23.427 177.772 67.3796C111.992 111.332 60.7234 173.804 30.4483 246.894C0.173279 319.985 -7.74801 400.411 7.68608 478.004C23.1202 555.596 61.2164 626.869 117.157 682.81C173.098 738.751 244.372 776.847 321.964 792.281C399.556 807.716 479.983 799.794 553.074 769.519C626.164 739.244 688.635 687.975 732.588 622.195C776.541 556.416 800 479.08 800 399.968C799.88 293.918 757.698 192.246 682.71 117.258C607.721 42.2694 506.05 0.0880827 400 -0.0324707ZM767.054 383.689H603.449C602.339 324.157 591.167 265.241 570.405 209.435C605.003 193.114 637.074 171.901 665.633 146.448C727.122 210.606 763.17 294.941 767.054 383.722V383.689ZM416.267 46.7192C440.92 67.0682 463.02 90.3261 482.085 115.985C499.778 139.755 514.955 165.297 527.372 192.202C491.718 205.36 454.236 212.901 416.267 214.554V46.7192ZM454.593 36.5794C524.195 47.0533 589.304 77.3674 642.121 123.891C616.718 146.181 588.354 164.852 557.836 179.373C533.224 125.413 498.13 76.8853 454.593 36.6121V36.5794ZM319.575 116.007C338.215 90.9282 359.75 68.1375 383.733 48.1076V214.575C346.263 212.956 309.263 205.593 274.027 192.745C286.497 165.65 301.762 139.931 319.575 116.007ZM243.52 180.056C212.475 165.444 183.636 146.545 157.846 123.913C211.162 76.9622 276.987 46.5386 347.294 36.3517C303.462 76.8539 268.177 125.719 243.52 180.067V180.056ZM383.733 247.11V383.754H230.756C231.988 328.78 242.379 274.396 261.501 222.839C300.724 237.279 341.97 245.461 383.733 247.11ZM383.733 416.289V550.613C342.948 552.214 302.65 560.063 264.245 573.886C243.885 523.729 232.548 470.369 230.756 416.267L383.733 416.289ZM383.733 583.147V748.552C340.054 706.905 304.101 657.847 277.541 603.655C311.729 591.601 347.515 584.683 383.733 583.125V583.147ZM352.717 764.342C279.858 754.91 211.524 723.773 156.599 674.981C183.566 651.041 213.919 631.212 246.676 616.137C273.219 671.274 309.094 721.406 352.717 764.32V764.342ZM416.267 750.103V583.093C452.987 584.672 489.26 591.764 523.87 604.132C496.997 658.812 460.555 708.241 416.267 750.081V750.103ZM554.669 616.777C586.909 631.778 616.799 651.384 643.401 674.981C588.963 723.338 521.342 754.363 449.181 764.093C492.538 721.398 528.222 671.557 554.669 616.755V616.777ZM416.267 550.624V416.267H570.882C569.093 470.557 557.689 524.1 537.198 574.406C498.363 560.257 457.567 552.222 416.267 550.591V550.624ZM416.267 383.765V247.121C458.534 245.442 500.265 237.056 539.898 222.275C559.159 273.988 569.621 328.563 570.849 383.733L416.267 383.765ZM134.367 146.492C163.312 172.297 195.863 193.745 230.995 210.162C210.404 265.769 199.325 324.446 198.222 383.733H32.9467C36.843 294.965 72.8903 210.644 134.367 146.492ZM32.9467 416.267H198.222C199.882 474.598 211.836 532.176 233.532 586.346C196.939 603.137 163.096 625.367 133.153 652.283C72.3896 588.264 36.803 504.447 32.9467 416.267ZM666.793 652.294C637.253 625.721 603.91 603.709 567.867 586.986C589.72 532.63 601.759 474.828 603.427 416.267H767.054C763.181 504.457 727.575 588.278 666.793 652.294Z" fill="white"/>
</g>
<defs>
<clipPath id="clip0_86_586">
<rect width="800" height="800" fill="white"/>
</clipPath>
</defs>
</svg>
