<svg width="150" height="100" viewBox="0 0 150 100" fill="none" xmlns="http://www.w3.org/2000/svg">
<path d="M17.3333 52.1664L16.1667 53.5529L13.1667 50.9532V38.3016L14.8333 36.5685L17.3333 38.9948V52.1664ZM25.3333 53.8995L21.8333 50.7799V38.1283L23.3333 36.5685L25.3333 38.6482V53.8995ZM29.8333 50.4333V36.9151L26 32.9289L22 37.435L17.6667 32.9289L13.5 37.435V36.0485C13.5 32.2357 11.3333 32.9289 11.3333 30.3293C11.3333 28.7695 12.3333 28.0762 13.5 27.383L13.1667 27.0364C9.66667 28.4229 7.66667 30.156 7.66667 32.409C7.66667 34.3154 9.00001 34.4887 9.00001 36.3951V41.9411C6.50001 41.9411 6 44.3674 6 45.4073C6 45.9272 6.16666 46.6205 6.16666 46.7938H6.66667C6.83334 46.1005 7.16667 45.4073 8.00001 45.4073H9.00001V52.513L14 57.0191L17.8333 52.6863L22.6667 57.0191L29.8333 50.4333ZM37.6667 53.2062L36.8333 54.0728L34.6667 51.9931V41.2478L34.8333 41.0745L37.8333 43.3276L37.6667 53.2062ZM51.5 54.9393C50.8333 54.0728 49.6667 53.5529 48.6667 53.5529C47.3333 53.5529 46.8333 54.0728 46 54.4194V54.2461L49.8333 48.5269H51.5V54.9393ZM53.8333 41.4211L50.5 46.4471H49.1667V41.0745H49.3333C50 41.7678 50.8333 42.1144 51.5 42.1144C52.5 42.2877 53 42.1144 53.8333 41.4211ZM44.6667 53.3795L44.1667 52.8596L43.1667 54.0728L41.5 52.513V42.6343L42.8333 41.2478L42.3333 40.7279L41.3333 41.7678L37.6667 38.6482L31 43.5009V53.0329L30 54.2461L30.5 54.766L31.3333 53.8995L34.8333 57.0191L37.8333 53.8995H38L41.3333 57.0191L44.6667 53.3795ZM56 39.1681L55.5 38.8215C54.6667 39.5147 53.6667 39.688 53 39.688C52 39.688 51.5 39.1681 50.8333 38.6482L45 42.9809V49.74H48L43.1667 57.0191L43.6667 57.1924C44.5 56.1525 45.3333 55.8059 46.5 55.8059C47.8333 55.8059 48.8333 56.3258 49.5 57.1924L55 53.2062V45.4073H51.6667L56 39.1681ZM68.8333 41.2478L68.3333 40.7279L67.3333 41.7678L64.3333 38.8215L61.3333 42.1144V32.409H61.1667L57.3333 36.3951V52.513L56 53.8995V54.0728L59.1667 57.1924L62 54.0728L60.8333 53.0329V43.1543L61.8333 42.1144L63.5 43.6742V56.6724C63.5 58.5789 62.3333 59.9653 60.6667 60.8319L61 61.3518C64.3333 60.6586 67.3333 58.2322 67.3333 54.766V42.1144L68.8333 41.2478ZM78.1667 53.3795L77.6667 52.8596L76.5 54.0728L75 52.6863V42.2877L76.3333 40.9012L75.8333 40.3813L74.8333 41.4211L72.1667 38.9948L68.6667 42.9809L69.1667 43.5009L70.1667 42.461L71.5 43.6742V54.0728L70.3333 55.4593L70.8333 55.9792L71.8333 54.9393L74.8333 57.7123L78.1667 53.3795ZM76.1667 35.5286L73.1667 32.7556L70.5 35.7019L73.5 38.4749L76.1667 35.5286ZM103.5 59.4454C103.5 60.312 103 60.8319 102.333 61.5251C101.333 60.6586 100.333 60.1386 99 60.1386C97.3333 60.1386 96.5 60.6586 95.3333 61.3518L101 54.5927V55.1126C101 56.6724 101.333 57.3657 102.167 57.8856C103 58.0589 103.5 58.5789 103.5 59.4454ZM101 53.2062L100 54.4194L97.8333 52.6863V41.5945L98 41.4211L101 43.6742V53.2062ZM123.5 54.5927L120.5 52.3397V41.4211L123.5 43.8475V54.5927ZM93.3333 53.2062L92.8333 52.6863L91.6667 54.0728L90.3333 52.6863V42.461L91.6667 41.0745L91.1667 40.5546L90.1667 41.5945L87.1667 38.6482L83.8333 42.2877V41.5945L80.6667 38.6482L77 42.6343L77.5 43.1543L78.6667 41.9411L80 43.3276V52.513L78.6667 53.8995V54.0728L81.8333 57.1924L84.8333 54.0728V54.2461L83.6667 53.2062V43.5009L85 42.1144L86.6667 43.6742V54.4194L89.6667 57.3657L93.3333 53.2062ZM106 41.2478L105.5 40.7279L104.333 41.7678L100.667 38.8215L94 43.6742V53.8995L92.6667 55.286L93.1667 55.8059L94.1667 54.766L97.3333 57.3657L92.5 63.2582L93 63.6048C94.1667 62.7383 95.6667 62.2184 96.8334 62.2184C98 62.2184 98.8333 62.7383 99.8333 64.1248C103.333 61.3518 105.667 59.792 105.667 58.2322C105.667 56.8458 104.667 56.8457 104.667 55.1126V42.6343L106 41.2478ZM115.667 53.2062L115.167 52.6863L114 54.0728L112.333 52.6863V41.7678H114L115.333 39.8614L115.167 39.688H112.333V33.1023L112.167 32.9289L108.333 37.0884V39.5147H107.333L106 41.4211L106.167 41.5945H108.333V54.2461L107.167 55.4593L107.667 55.9792L108.667 54.9393L111.667 57.3657L115.667 53.2062ZM128.5 41.4211L128 40.9012L127 41.9411L123 38.8215L116.667 43.5009V53.3795L115.5 54.5927L116 55.1126L117 54.0728L121.333 57.3657L127.333 52.6863V42.6343L128.5 41.4211ZM144.833 53.2062L144.333 52.6863L143.167 54.0728L141.833 52.6863V42.461L143.167 41.0745L142.667 40.5546L141.667 41.5945L138.667 38.6482L135.333 42.2877V41.5945L132.167 38.6482L128.5 42.6343L129 43.1543L130.167 41.9411L131.5 43.3276V52.513L130.167 53.8995V54.0728L133.333 57.1924L136.333 54.0728V54.2461L135.167 53.2062V43.5009L136.5 42.1144L138.167 43.6742V54.4194L141.167 57.3657L144.833 53.2062ZM72 15.2513C71.5 17.331 70.6667 18.7175 69 19.7574V6.41247C71.8333 5.54592 72.5 3.29289 72.5 0.866551H72C71.5 2.25303 70.6667 2.77296 69 2.77296C66 2.77296 64 0.346615 61.5 0.346615C57.5 0.346615 55.5 4.33276 55.5 7.62565V8.31888H56C56 6.41247 57.5 4.67937 60 4.67937C60.5 4.67937 61 4.85269 61.5 5.026C57.8333 7.27903 55.1667 10.052 55 14.2114V16.2912C55.5 21.8371 59 25.3033 63.8333 25.3033C68.6667 25.3033 71.8333 20.4506 72.3333 15.7712L72 15.2513ZM58.5 13.3449C58.5 9.18544 60.3333 7.10572 62 5.19931L65.8333 6.41247L60.5 9.53206L61 10.052L62.1667 9.53206V18.7175L61 19.2374C59.1667 17.851 58.5 15.4246 58.5 13.3449ZM68.1667 19.9307C67.1667 20.4506 66 20.6239 65 20.6239C63.5 20.6239 62.5 20.104 61.5 19.4107L66 16.8111V6.06586C66.5 6.23917 67 6.23917 67.3333 6.23917H68.1667V19.9307ZM92.3333 21.4905L89.1667 18.8908V17.1577L95.8333 12.305L92.1667 6.41247L85.5 11.4385V20.6239L84.3333 21.8371L84.8333 22.357L85.8333 21.3172L90.3333 25.13L95.3333 19.584L94.8333 19.0641L92.3333 21.4905ZM89.3334 9.01213L92.3333 14.0381L89.3334 16.2912V9.01213ZM84.1667 8.31888L83.1667 9.35876L80.1667 6.41247L77.1667 9.70537V0H77L73.1667 3.98613V20.104L71.8333 21.4905V21.6638L75 24.7834L77.8333 21.6638L76.6667 20.6239V10.7452L77.6667 9.70537L79.3333 11.2652V24.2634C79.3333 26.1698 78.1667 27.5563 76.5 28.4229L76.8333 28.9428C80.1667 28.2496 83.1667 25.8232 83.1667 22.357V9.70537L84.5 8.4922L84.1667 8.31888ZM59 72.2704V68.8042H58.3333V72.9636L57.3333 74.1768V70.5373L54 67.4177L50.1667 71.5771L50.6667 72.0971L51.6667 71.0572L53 72.2704V76.2565H52.6667C50.6667 76.2565 49.6667 77.643 49.6667 79.3761C49.6667 80.4159 49.8333 80.7626 50 81.1092H50.5C50.6667 80.2426 51.3333 79.5494 52.3333 79.5494H53V86.6551C50.6667 87.3484 49.3333 89.6014 49.1667 92.3743L49.5 92.5477C50.6667 91.1612 51.8333 90.2946 53.1667 90.1213L53.3333 100L57.3333 96.0139L59.3333 97.9203H59.5V90.4679C60.3528 90.8435 61.0988 91.4402 61.6667 92.201L67.8333 87.3484V71.4038L64 67.591L59 72.2704ZM58.1667 96.1872L57.1667 95.1473V74.6967L58.1667 73.4835V96.1872ZM62.8333 87.8683C61.6667 86.6551 60.6667 86.1352 59 85.9619V72.617L60.8333 70.5373L63 72.617V87.8683H62.8333ZM92.1667 73.3102C91.3333 74.0035 90.3333 74.1768 89.6667 74.1768C88.6667 74.1768 88.1667 73.6568 87.5 73.1369L81.6667 77.4697V84.2288H84.8333L80 91.5078L80.5 91.6811C81.3333 90.6413 82.1667 90.2946 83.3333 90.2946C84.6667 90.2946 85.6667 90.8146 86.3333 91.6811L91.8334 87.695V79.896H88.5L92.5 73.6568L92.1667 73.3102ZM88.1667 89.2548C87.3333 88.3882 86.1667 87.8683 85.1667 87.8683C83.8333 87.8683 83.3333 88.3882 82.5 88.7348V88.5615L86.3333 82.8423H88V89.2548H88.1667ZM87 80.9359H85.6667V75.5633H85.8333C86.5 76.2565 87.3333 76.6031 88 76.6031C89.1667 76.7764 89.5 76.4298 90.3333 75.9099L87 80.9359ZM98.6667 76.0832H100.333L101.667 74.1768L101.5 74.0035H98.6667V67.4177L94.8333 71.5771V74.0035H94L92.8333 75.9099V76.0832H95V88.5615L93.8333 89.7747L94.3334 90.1213L95.3333 89.2548L98.3333 91.6811L102 87.5217L101.5 87.0017L100.333 88.3882L98.6667 87.0017V76.0832ZM80.5 75.39L79.5 76.4298L75.5 73.3102L69.1667 77.9896V87.8683L68 89.0815L68.5 89.6014L69.5 88.5615L73.8333 91.8544L79.8333 87.175V77.1231L81 76.2565L80.5 75.39ZM76.1667 89.0815L73.1667 86.8284V75.9099L76.1667 78.3362V89.0815Z" fill="black"/>
</svg>
