<svg width="115" height="100" viewBox="0 0 115 100" fill="none" xmlns="http://www.w3.org/2000/svg">
<path d="M57.242 7.96419C55.6136 3.89744 51.6446 -0.493944 44.2127 0.109959C34.7458 1.15719 31.7961 10.2122 33.2255 15.6264C29.4555 13.0729 23.043 11.9506 17.4473 16.7435C10.2214 23.9868 14.0874 33.7819 18.0581 36.1312C13.6807 35.7263 6.76202 38.6829 5.22958 46.422C3.60113 56.0286 10.9248 61.6295 18.0581 61.6295H97.1362C105.383 61.6295 109.958 54.4961 109.445 47.7677C108.635 38.9884 100.601 35.6198 96.2182 36.3389C99.88 34.2968 104.771 24.6972 97.3352 17.1536C91.4323 11.5387 83.9062 13.5808 81.2777 16.0313C82.7036 11.3415 80.3648 1.64415 70.7914 0.11345C70.1282 0.0401437 69.4928 0 68.8854 0C61.5758 0 58.291 5.34087 57.2612 7.96942" fill="white"/>
<path d="M18.7668 18.2689C14.5918 22.0477 13.0716 30.6123 20.5994 35.618L50.6253 56.2171L36.0688 22.8628C33.0178 14.9911 24.6714 13.2754 18.772 18.2672" fill="black"/>
<path d="M44.6124 2.05083C39.7323 2.15031 32.4035 7.96244 35.6656 16.8377L50.723 52.3475L56.0115 14.9963C57.2368 5.71613 50.2133 1.43121 44.6107 2.04908" fill="black"/>
<path d="M58.3625 13.5738H61.2075C61.2075 13.5738 62.726 13.5738 62.9529 14.2895C61.8324 15.204 58.7814 15.3367 59.1881 20.2238L63.9739 52.3598L78.9284 16.7539C81.988 8.80372 75.5668 2.16602 69.8699 1.96181L69.0617 1.9269C63.9478 1.9269 58.092 5.64108 58.38 13.5861" fill="black"/>
<path d="M78.3123 23.1665L64.1677 56.1193L94.1848 35.4121C101.103 30.5041 99.9882 22.6586 96.1152 18.7786C94.492 16.9529 91.5109 15.5426 88.3517 15.5426C84.6201 15.5426 80.6284 17.5219 78.3123 23.1665Z" fill="black"/>
<path d="M90.8214 40.1002L62.6335 59.7881H97.3422C104.463 59.7881 109.04 52.4453 107.005 45.7081C105.643 41.4738 101.594 38.1506 96.9338 38.1436C94.965 38.1454 92.8757 38.737 90.8249 40.0984" fill="black"/>
<path d="M17.9744 59.7881H52.1717L23.9575 40.1002C17.4438 35.9148 10.1167 38.3635 7.47414 45.3084C5.23307 53.2604 10.8305 59.7881 17.9744 59.7881Z" fill="black"/>
<path d="M54.9765 84.775H60.9248C62.2914 84.8623 64.7157 86.0544 64.7157 88.8819C64.7157 91.8386 62.2024 93.0324 60.8375 93.1668H54.9765V84.775ZM54.8857 71.6113H59.7815C61.4571 71.7021 63.4346 72.9378 63.4346 75.2348C63.4346 77.5038 61.9388 78.9873 60.0032 79.2544H54.8892V71.6096M48.1957 66.1291V98.6403H63.9687C67.7126 98.6403 72.1633 94.8878 72.1633 89.9833C72.1633 84.8606 68.8174 82.3455 66.7002 81.3262C66.7002 81.3262 70.575 79.0571 70.4057 74.2137C70.2311 67.6772 64.1921 66.1291 62.1203 66.1291H48.1974M23.9994 98.6403V79.9176L44.4431 99.8796V66.1326H37.575V84.3771L17.1261 64.8288V98.6403H23.9994ZM73.2646 82.0348C73.4392 92.3325 80.8221 100 90.317 100C92.586 100 94.9423 99.5741 97.3649 98.6386V92.0149C95.5133 93.1501 93.3843 93.7523 91.2124 93.755C85.4666 93.755 80.0419 89.5033 80.2688 81.7695C80.6563 75.4966 85.7912 71.1645 91.3276 71.1645C93.3522 71.1645 95.4397 71.7492 97.3666 73.0234V66.5777C95.1203 65.6666 92.8862 65.2599 90.7342 65.2599C81.262 65.2599 73.4461 73.2485 73.2803 82.0156" fill="black"/>
</svg>
