<svg width="245" height="100" viewBox="0 0 245 100" fill="none" xmlns="http://www.w3.org/2000/svg">
<path d="M162.588 10H160.011H85.0063H82.5871H5V90H82.5871H85.0063H160.011H162.588H240.014V88.7902V10H162.588ZM82.5871 87.5813H7.41916V12.4192H82.5871V87.5813ZM160.011 87.5813H85.0063V12.4192H160.011V87.5813ZM237.595 87.5813H162.588V12.4192H237.594V87.5813H237.595Z" fill="black"/>
<path d="M36.2249 41.1571C37.0943 40.0293 38.3046 39.0738 39.8511 38.3142C41.3972 37.5483 42.8532 37.1653 44.215 37.1653C47.1633 37.1653 49.2883 37.9451 50.5865 39.4948C51.8873 41.0517 52.5379 43.5157 52.5379 46.8958V69.7861H61.815V45.4299C61.815 40.3701 60.4429 36.4178 57.7099 33.5942C54.9768 30.7576 51.2407 29.3438 46.5203 29.3438C41.5945 29.3438 37.871 30.8038 35.3473 33.7251L33.6384 30.0164H26.9531V69.7857H36.2249V41.1571Z" fill="black"/>
<path d="M113.872 68.8225C116.273 69.983 118.932 70.5699 121.855 70.5699C127.921 70.5699 132.702 68.8135 136.211 65.2989C139.713 61.7914 141.461 56.7733 141.461 50.2754C141.461 36.3246 135.128 29.3438 122.45 29.3438C119.056 29.3438 116.197 30.4612 113.871 32.6848V30.0159H104.594V83.5146H113.872V68.8225ZM113.872 39.8679C115.595 38.1455 117.57 37.2743 119.793 37.2743C124.058 37.2743 127.12 38.2334 128.971 40.1481C130.818 42.0601 131.743 45.3595 131.743 50.0535C131.743 54.4429 130.81 57.6603 128.952 59.696C127.087 61.7282 124.021 62.7497 119.756 62.7497C117.51 62.7497 115.546 62.0712 113.872 60.7121V39.8679Z" fill="black"/>
<path d="M196.808 47.2258C196.808 44.4147 197.634 42.0373 199.297 40.0885C200.961 38.1388 202.863 37.1649 205.001 37.1649C206.973 37.1649 208.781 37.6864 210.433 38.7294L214.347 30.7917C212.673 29.8271 210.257 29.3438 207.11 29.3438C202.824 29.3438 199.392 30.8329 196.807 33.8157V30.0164H187.531V69.7857H196.807L196.808 47.2258Z" fill="black"/>
</svg>
