<svg width="190" height="100" viewBox="0 0 190 100" fill="none" xmlns="http://www.w3.org/2000/svg">
<path d="M8 11H54.9697L56.4127 32.333H30.1267V42.5023H51.5455V63.7865H29.9668V89H8V11ZM142.642 88.9279L153.917 69.2095L165.324 88.8908H189.635L166.137 48.44L187.484 11.1092H163.975L154.225 27.9124L144.638 11.1092H120.267L142.057 48.674L119 88.9415L142.642 88.9279ZM55.8199 50.0975C55.8199 29.2247 72.4651 12.2149 93.0649 12.2149C113.665 12.2149 130.242 29.2247 130.242 50.1326C130.242 71.0405 113.536 88.0406 93.0649 88.0406C72.5938 88.0406 55.8199 71.0756 55.8199 50.0975ZM99.6676 65.6741V34.5131C99.5935 30.8666 96.688 27.9163 93.0454 27.7817C91.3301 27.8737 89.7171 28.6259 88.544 29.8807C87.371 31.1355 86.7291 32.7956 86.7527 34.5131V65.5922C86.7361 67.2797 87.389 68.905 88.5685 70.1119C89.7481 71.3189 91.3579 72.009 93.0454 72.0311C96.6217 72.0857 99.574 69.2523 99.6676 65.6741Z" fill="black"/>
</svg>
