<svg width="268" height="100" viewBox="0 0 268 100" fill="none" xmlns="http://www.w3.org/2000/svg">
<path d="M44.6531 61.7617C52.4865 61.7617 58.8248 55.6613 58.8248 48.1333C58.8248 40.6089 52.4829 34.5049 44.6531 34.5049C36.8233 34.5049 30.485 40.6089 30.485 48.1333C30.4814 55.6577 36.8233 61.7617 44.6531 61.7617Z" fill="black"/>
<path d="M28.2905 61.7582C20.4607 61.7582 14.1188 55.6613 14.1188 48.1333C14.1188 40.6089 20.4607 34.5049 28.2905 34.5049V61.7582Z" fill="black"/>
<path d="M61.0158 76.7963V63.8674L74.4702 63.871C74.4702 71.019 68.4514 76.7963 61.0158 76.7963Z" fill="black"/>
<path d="M28.2905 19.4632V32.4098L14.8218 32.4134C14.8218 25.2583 20.8513 19.4632 28.2905 19.4632Z" fill="black"/>
<path d="M28.2905 76.7963V63.8674H14.8254C14.8254 71.019 20.8513 76.7963 28.2905 76.7963Z" fill="black"/>
<path d="M77.3891 59.8513L77.3855 36.4259C81.5294 38.805 84.3098 43.1549 84.3098 48.1333C84.3098 53.1117 81.5294 57.4687 77.3891 59.8513Z" fill="black"/>
<path d="M32.477 16.658L56.8328 16.6651C54.3578 12.6774 49.8339 10 44.6531 10C39.4794 10 34.9449 12.6738 32.477 16.658Z" fill="black"/>
<path d="M56.6481 79.6122L32.2924 79.6051C34.7674 83.5963 39.2948 86.2631 44.472 86.2631C49.6457 86.2631 54.1767 83.5963 56.6481 79.6122Z" fill="black"/>
<path d="M58.8213 63.8674C58.8213 71.3954 52.4829 77.4959 44.6531 77.4959C36.8233 77.4959 30.4814 71.3954 30.4814 63.8674H58.8213Z" fill="black"/>
<path d="M61.0229 61.7582C68.8455 61.7582 75.191 55.6613 75.191 48.1333C75.191 40.6089 68.8455 34.5049 61.0229 34.5049V61.7582Z" fill="black"/>
<path d="M58.8213 32.4276C58.8213 24.8961 52.4829 18.7956 44.6531 18.7956C36.8233 18.7956 30.4814 24.8961 30.4814 32.4276H58.8213Z" fill="black"/>
<path d="M11.9243 59.8513L11.9278 36.4259C7.78037 38.805 5 43.1549 5 48.1333C5 53.1117 7.77682 57.4687 11.9243 59.8513Z" fill="black"/>
<path d="M74.4702 32.4169L61.0158 32.4098V19.4738C68.4514 19.4738 74.4702 25.2618 74.4702 32.4169Z" fill="black"/>
<path d="M94.3625 91V11.6938H97.9169V91H94.3625Z" fill="black"/>
<path d="M135.475 40.371L134.797 46.2549C133.259 45.5482 131.58 45.1967 129.751 45.1967C127.457 45.1967 125.618 46.0276 124.243 47.693C122.869 49.3584 122.18 51.5422 122.18 54.2551C122.18 57.0213 122.827 59.2335 124.109 60.8989C125.465 62.6885 127.4 63.5834 129.914 63.5834C131.686 63.5834 133.593 63.1324 135.638 62.2269L135.965 68.409C133.92 69.0411 131.445 69.3571 128.529 69.3571C123.974 69.3571 120.448 67.9297 117.951 65.0712C115.6 62.376 114.425 58.7719 114.425 54.2515C114.425 49.9478 115.608 46.4395 117.98 43.7302C120.494 40.8575 123.92 39.4194 128.263 39.4194C130.955 39.4229 133.359 39.7389 135.475 40.371Z" fill="black"/>
<path d="M140.897 68.6825V27.0302H148.361V43.7337H148.468C150.637 40.861 153.485 39.4229 157.011 39.4229C161.134 39.4229 164.237 40.9143 166.318 43.8971C168.126 46.4999 169.031 49.9727 169.031 54.3119C169.031 58.6334 168.126 62.1133 166.318 64.7516C164.22 67.8267 161.116 69.3607 157.011 69.3607C153.141 69.3607 150.222 67.9687 148.248 65.1848H148.141V68.6825H140.897ZM148.415 54.3084C148.415 56.7123 148.887 58.7648 149.824 60.4621C151 62.5394 152.711 63.5798 154.952 63.5798C157.175 63.5798 158.84 62.5216 159.941 60.4053C160.807 58.7435 161.244 56.7088 161.244 54.3048C161.244 51.9363 160.818 49.9407 159.969 48.3109C158.883 46.2336 157.256 45.1932 155.087 45.1932C152.878 45.1932 151.167 46.2052 149.959 48.2292C148.929 49.9514 148.415 51.979 148.415 54.3084Z" fill="black"/>
<path d="M194.076 40.371L193.398 46.2549C191.86 45.5482 190.18 45.1967 188.352 45.1967C186.058 45.1967 184.218 46.0276 182.844 47.693C181.47 49.3584 180.781 51.5422 180.781 54.2551C180.781 57.0213 181.427 59.2335 182.709 60.8989C184.066 62.6885 186.001 63.5834 188.515 63.5834C190.287 63.5834 192.194 63.1324 194.239 62.2269L194.566 68.409C192.521 69.0411 190.046 69.3571 187.13 69.3571C182.574 69.3571 179.048 67.9297 176.552 65.0712C174.201 62.376 173.026 58.7719 173.026 54.2515C173.026 49.9478 174.208 46.4395 176.58 43.7302C179.095 40.8575 182.521 39.4194 186.864 39.4194C189.556 39.4229 191.959 39.7389 194.076 40.371Z" fill="black"/>
<path d="M199.498 68.6825V60.8989H207.285V68.6825H199.498Z" fill="black"/>
<path d="M234.173 40.371L233.495 46.2549C231.957 45.5482 230.277 45.1967 228.449 45.1967C226.155 45.1967 224.315 46.0276 222.941 47.693C221.567 49.3584 220.878 51.5422 220.878 54.2551C220.878 57.0213 221.524 59.2335 222.806 60.8989C224.163 62.6885 226.098 63.5834 228.612 63.5834C230.384 63.5834 232.291 63.1324 234.336 62.2269L234.663 68.409C232.618 69.0411 230.143 69.3571 227.227 69.3571C222.671 69.3571 219.145 67.9297 216.649 65.0712C214.298 62.376 213.123 58.7719 213.123 54.2515C213.123 49.9478 214.305 46.4395 216.677 43.7302C219.191 40.8575 222.618 39.4194 226.961 39.4194C229.653 39.4229 232.056 39.7389 234.173 40.371Z" fill="black"/>
<path d="M241.115 47.9629L240.873 41.5925C244.002 40.1473 247.318 39.4229 250.83 39.4229C255.191 39.4229 258.333 40.371 260.272 42.2707C262.207 44.1705 263.173 47.2314 263.173 51.4641V55.1251C263.173 57.0603 263.209 59.4465 263.28 62.2837C263.337 64.2722 263.443 66.4063 263.606 68.6825H257.041C256.984 68.3203 256.877 66.8928 256.714 64.3965H256.604C255.773 65.9341 254.505 67.152 252.808 68.0575C251.217 68.9275 249.534 69.3607 247.762 69.3607C245.067 69.3607 242.77 68.6221 240.873 67.1378C238.81 65.547 237.781 63.4484 237.781 60.8456C237.781 57.0142 239.407 54.2942 242.663 52.6856C244.925 51.5813 248.124 51.0309 252.268 51.0309H256.391C256.391 48.7689 255.865 47.1604 254.818 46.2052C253.824 45.2997 252.197 44.8487 249.935 44.8487C246.786 44.8452 243.849 45.8856 241.115 47.9629ZM244.89 60.4124C244.89 62.7453 246.459 63.91 249.609 63.91C252.574 63.91 254.608 62.5358 255.713 59.7874C256.167 58.6476 256.391 57.2095 256.391 55.4766H253.163C247.645 55.4766 244.89 57.1207 244.89 60.4124Z" fill="black"/>
</svg>
