<svg width="240" height="100" viewBox="0 0 240 100" fill="none" xmlns="http://www.w3.org/2000/svg">
<path d="M233.316 49.8949L231.22 50.4651C229.206 43.6232 225.832 40.6669 221.069 40.6669C217.722 40.6669 215.367 42.872 215.367 46.3685C215.367 49.7153 218.144 51.4999 225.601 54.5331C232.486 57.0646 235.344 60.1663 235.344 65.5828C235.344 73.8287 228.867 79 218.239 79C213.108 79 207.326 77.8568 204.059 76.5512L203.652 65.0939L205.666 64.6862C208.688 72.5259 212.551 75.4907 217.586 75.4907C221.941 75.4907 224.229 72.4689 224.229 69.3672C224.229 66.2655 222.461 64.4681 215.656 62.0193C209.179 59.8812 204.744 57.1202 204.744 50.2356C204.744 43.4593 210.702 37.7164 220.855 37.7164C225.644 37.7164 229.999 38.5331 232.857 39.8545L233.316 49.8949ZM189.471 53.4869C189.716 48.0989 188.627 40.3163 184.191 40.3163C179.63 40.3163 177.142 47.5829 177.061 53.8147L189.471 53.4869ZM185.28 37.7021C196.438 37.7021 201.814 45.8668 201.909 56.5886H176.816C176.735 66.0859 181.769 73.2714 191.184 73.2714C195.293 73.2714 197.661 72.1282 200.164 70.3322L201.333 71.6379C198.557 75.3938 192.842 78.9857 185.221 78.9857C172.975 78.9857 164.482 70.5759 164.482 58.711C164.454 47.9877 171.424 37.7007 185.274 37.7007M149.084 57.5707C148.838 49.0796 145.737 42.3574 139.776 42.3574C138.36 42.3574 137.271 42.6026 135.585 43.1742L136.075 75.8057C136.674 76.0509 138.089 76.2134 139.097 76.2134C144.894 76.2134 149.085 68.0216 149.085 57.5692M161.523 56.9164C161.523 70.3336 153.032 78.9872 138.688 78.9872C133.557 78.9872 128.264 78.1704 123.665 77.1099C124.072 71.7219 124.072 38.3393 123.665 32.0675C123.257 28.7891 122.33 27.2497 119.816 26.9361L118.128 26.7722V25.2756L135.829 22C135.748 24.7752 135.584 32.069 135.584 40.6441C138.687 39.0933 141.542 38.1953 145.409 38.1953C154.635 38.1953 161.52 46.035 161.52 56.9193M116.426 49.6241C110.956 46.0321 105.077 47.5829 103.907 49.6241C103.39 55.8958 103.499 65.5885 103.988 70.5531C104.234 73.8315 105.157 75.207 107.69 75.4522L111.037 75.78V77.9181H86.0256V75.78L87.9584 75.4522C90.3816 75.207 91.2368 73.8187 91.3879 70.5531C91.9866 65.2464 92.1505 54.1155 91.3879 47.992C91.224 44.4813 90.3816 43.1742 87.9584 42.8606L86.0256 42.6154V41.1473L103.906 37.7178L103.661 46.8617C107.851 37.3914 116.18 36.2482 120.697 38.7797L116.426 49.6241ZM57.7501 58.3874C57.7501 68.3751 60.4584 76.5398 65.8748 76.5398C71.7532 76.5398 73.4408 68.539 73.4408 58.3874C73.4408 48.2358 70.8409 40.3163 65.3147 40.3163C59.4093 40.3163 57.7501 48.0733 57.7501 58.3874ZM86.1069 58.2235C86.1069 69.6808 78.5409 78.9886 65.0424 78.9886C51.762 78.9886 45.067 70.144 45.067 58.5485C45.067 47.1738 52.633 37.7021 66.1314 37.7021C79.4118 37.7021 86.1069 46.6023 86.1069 58.2235ZM51.3544 38.5345L48.5791 39.3513C46.2386 31.3235 42.1022 26.7508 34.9709 26.7508H25.6631C25.1457 32.0846 24.9005 40.3305 25.1457 49.2293L31.3504 48.9014C35.5411 48.9014 37.3086 45.8796 38.3177 41.4723H40.6582V60.0309H38.3177C37.3114 55.5409 35.5425 52.4763 31.3504 52.2482L25.1457 52.167C25.1457 58.7808 25.2269 64.4254 25.6631 67.8705C26.0708 72.7696 27.4306 75.0004 31.0226 75.4636L34.3979 75.7914V77.9295H4V75.7914L6.5315 75.4636C10.0422 74.9733 11.4847 72.7554 11.891 67.8705C12.5709 59.8698 12.7348 42.7779 11.891 33.2806C11.4833 28.2204 10.0408 26.1778 6.5315 25.7687L4 25.3611V23.1546H51.2746L51.3544 38.5345Z" fill="black"/>
</svg>
