<svg width="155" height="100" viewBox="0 0 155 100" fill="none" xmlns="http://www.w3.org/2000/svg">
<path d="M29.0575 11.2658V12.833L30.5125 13.1676C32.7488 13.7266 33.0856 15.0693 33.9792 19.3197L36.3072 31.2687L29.8182 66.1719L20.9807 22.3167C19.9726 17.505 19.638 13.926 23.2193 13.1424L24.8965 12.8078V11.2658H4V12.833L6.12631 13.3944C8.25263 13.9535 9.14623 14.9593 10.6012 21.5605L24.8072 88.7938H28.4732L37.9821 38.0051L48.522 88.7938H51.4319L65.0811 23.6387C66.6484 16.1462 67.3197 14.0153 70.0074 13.3279L72.1314 12.7666V11.2658H56.7798V12.833L59.1284 13.2798C62.4851 13.9512 63.2664 16.0752 61.6992 24.6904L53.3314 66.1719L44.8537 22.3167C43.9371 17.9541 43.3987 13.926 47.0922 13.2546L49.5531 12.8078V11.2406L29.0575 11.2658ZM128.6 11.4766V13.0438L131.396 13.7152C133.854 14.2743 134.862 15.1701 134.862 18.3023V72.56C134.862 78.5998 134.862 86.5437 128.596 86.5437C125.017 86.5437 122.226 83.4115 122.446 81.2852C122.668 77.8185 128.71 78.0408 129.045 72.4477C129.382 68.5525 126.918 66.7195 124.458 66.4056C120.991 65.9588 116.741 68.8665 116.626 74.684C116.516 82.1765 121.438 89 129.824 89C139.103 89 145.175 82.7402 145.175 70.7682L145.178 18.4123C145.178 15.2801 145.961 14.272 148.198 13.7152L150.642 13.0186V11.4514L128.6 11.4766ZM90.9085 11C81.3997 11 76.0312 18.9439 76.0312 29.3463C76.0312 48.7008 100.979 56.1956 100.979 73.6484C100.979 81.9268 97.5097 86.5117 92.501 86.5117C85.0085 86.5117 79.6354 77.4542 78.295 63.0214H76.6178V88.528H77.9605C79.0786 84.8619 80.5336 84.5022 81.764 84.5022C83.8903 84.5022 86.1243 88.9702 92.6133 88.9702C102.569 88.9702 109.056 80.3596 109.06 68.4953C109.06 45.2272 84.1126 39.5219 84.1126 22.8528C84.1126 19.0493 85.2307 13.4585 90.8261 13.4585C98.8822 13.4585 102.351 24.0855 103.692 36.9511H105.369V11.4491H104.026C103.467 13.9099 102.461 15.0281 101.006 15.0281C98.4331 15.0281 97.1111 11.0023 90.9383 11.0023L90.9085 11ZM108.918 32.9391V33.214L108.971 33.182L108.943 32.9528L108.918 32.9391Z" fill="black"/>
</svg>
