<svg width="530" height="100" viewBox="0 0 530 100" fill="none" xmlns="http://www.w3.org/2000/svg">
<path fill-rule="evenodd" clip-rule="evenodd" d="M14.7833 40.7661C15.8053 37.9919 17.2168 35.8018 19.0175 34.1957C19.2585 34.0953 19.5125 34.0297 19.7719 34.001C20.0153 33.9766 20.648 33.9523 21.6457 33.9523C22.2054 33.9523 22.6921 34.001 23.1058 34.074C23.5625 34.1566 24.005 34.3041 24.4199 34.512C24.9648 34.7889 25.493 35.0977 26.0016 35.4367L18.3362 41.5204L20.1369 42.9805V63.2515C18.1859 62.2983 16.5665 60.7807 15.489 58.8955C13.9802 56.2917 13.2502 52.8118 13.2502 48.4315C13.2502 46.0711 13.7369 43.5159 14.7833 40.7417V40.7661ZM14.0532 32.9789C14.6351 32.9927 15.2141 33.0661 15.781 33.1979L17.7278 33.636C13.5179 35.4854 10.2813 38.5759 7.99385 42.8832C5.99829 46.6789 4.97017 50.9084 5.00066 55.1966C5.00066 60.6963 6.94745 65.4173 10.7437 69.3108C12.5361 71.2143 14.707 72.7217 17.1168 73.7359C19.5267 74.7501 22.1221 75.2488 24.7362 75.1999C30.0412 75.1999 34.5188 73.1801 38.1691 69.1162C41.7642 65.217 43.7243 60.0859 43.6444 54.7829C43.218 55.8196 42.6532 56.7938 41.9653 57.6788C41.1676 58.6307 40.2793 59.5027 39.3128 60.2826C38.6913 60.8372 38.0145 61.3264 37.293 61.7427C36.5319 62.1441 35.7523 62.5095 34.9569 62.8378V35.8261C36.1736 35.3394 37.147 34.804 37.877 34.293C38.6071 33.782 39.3858 33.0032 40.2375 32.0055C42.671 29.572 43.6444 26.8222 43.8877 23.829C42.5351 24.7521 41.0919 25.5349 39.5805 26.1652C38.3151 26.6518 36.855 26.9925 35.2732 27.1385C35.0299 27.1385 34.6648 27.1629 34.2268 27.2115C31.516 26.9742 28.8658 26.2746 26.391 25.1431C22.9111 23.756 20.1613 23.0746 18.1658 23.0746C14.2236 23.0746 11.0357 24.9241 8.62655 28.623C6.48508 31.9325 5.39002 35.8504 5.39002 40.401C5.74852 38.9053 6.50535 37.5346 7.58015 36.4345C8.42826 35.4906 9.41249 34.6786 10.5003 34.0253C11.5954 33.2953 12.8121 32.9789 14.1019 32.9789H14.0532ZM50.6042 74.8348L57.1259 67.5344L53.8164 64.0788V44.5623L55.6902 43.2969L60.9465 47.2635V73.0341C60.9465 74.4942 60.8491 75.7109 60.7031 76.7573C60.5459 77.7265 60.1439 78.6395 59.5351 79.4098L57.6856 81.6973C56.8582 82.7193 55.8118 83.5224 54.5707 84.1308C57.0772 83.8874 59.1214 83.3277 60.7275 82.4273C62.3336 81.5269 63.9883 80.1642 65.6918 78.2904C66.8433 77.0404 67.7955 75.6204 68.5146 74.0805C69.1498 72.6499 69.5681 71.1325 69.7557 69.5785V40.7904L67.5169 40.9364L60.2164 36.2154L55.3495 40.4254L53.6947 39.525V25.2648L52.1859 22.0282L45.5182 28.55V65.5389L43.4984 67.9724L50.6042 74.8348ZM72.9922 66.6583L85.0866 74.2995L96.5727 62.2294L90.343 66.6583L82.6775 61.183V56.0727L96.305 45.852L87.5931 34.1713L73.7223 43.8566V65.0279L72.9922 66.6583ZM113.145 28.9393V42.9805C112.313 43.0484 111.495 43.2285 110.711 43.5159C110.079 43.7592 109.422 44.1973 108.716 44.7813C106.72 46.3387 105.723 48.3342 105.723 50.792C105.704 51.5569 105.803 52.32 106.015 53.0552C106.745 52.4468 107.402 52.0818 108.083 51.8384C108.901 51.6239 109.745 51.5256 110.59 51.5464C111.076 51.5464 111.49 51.5951 111.806 51.6924C112.123 51.7897 112.536 51.9844 113.169 52.3008V66.0986L123.536 76.5626L133.075 66.8773L144.561 76.5626L161.303 60.3556V32.6139L150.937 24.6564L143.271 31.5675L132.807 24.6564L123.487 32.4435V27.8686C123.487 26.3598 122.416 24.6564 120.251 22.7583L118.401 21.3712C117.817 20.8845 117.476 20.2275 117.379 19.3514C117.291 18.6408 117.243 17.9259 117.233 17.2099C117.233 15.5065 117.817 14.1681 118.936 13.146C118.511 13.0665 118.08 13.0177 117.647 13C115.408 13 113.412 13.9247 111.685 15.8228C109.957 17.721 109.105 19.7894 109.105 22.1012C109.105 22.4419 109.154 22.9286 109.251 23.5613C109.425 24.706 109.86 25.7952 110.523 26.7447C111.185 27.6941 112.057 28.4784 113.072 29.0367L113.145 28.9393ZM163.275 67.072L172.595 73.5938L179.336 67.1937L187.366 72.7907L194.277 65.3686H191.844L188.777 62.2051V40.2064L187.123 40.4984L179.336 33.9766L164.54 44.1973V65.7336L163.275 67.072ZM208.051 35.5097C207.103 35.0574 206.212 34.4937 205.398 33.8306L193.158 42.4695V57.0217L194.277 57.9221H201.578L192.087 74.3481C193.547 73.1314 194.666 72.2797 195.494 71.866C196.637 71.3071 197.896 71.0238 199.168 71.0386C200.775 71.0386 202.089 71.2333 203.062 71.5983C204.035 71.9633 205.082 72.6447 206.153 73.5938L218.15 64.1518V49.3563L217.249 48.4559H209.219V47.7258L216.349 35.1934C215.619 35.6801 214.986 35.9234 214.548 35.9721C213.83 36.0653 213.106 36.106 212.382 36.0938H210.8C209.854 36.1105 208.915 35.9195 208.051 35.5341V35.5097ZM227.08 73.8371L233.651 66.488L230.341 63.0324V43.5159L232.142 42.2505L237.496 46.2901V71.9633C237.514 73.2098 237.424 74.4555 237.228 75.6866C237.058 76.66 236.644 77.5604 236.011 78.3634L234.357 80.5535C233.454 81.6069 232.354 82.4747 231.12 83.1087C233.247 82.96 235.324 82.3892 237.228 81.4296C239.136 80.397 240.829 79.0093 242.217 77.3413C243.361 75.9786 244.261 74.5915 244.894 73.1071C245.526 71.6226 245.964 70.1139 246.159 68.5565V39.6953L243.969 39.9387L236.839 35.2177L231.972 39.3546L230.317 38.4543V24.267L228.857 20.9575L222.092 27.4792V64.5169L220.072 66.8287L227.08 73.8371ZM263.193 29.4747L256.428 23.9994L250.953 30.0101L256.647 35.1934L263.193 29.4747ZM252.608 46.4361V66.8773L251.148 69.0675H253.703L259.543 74.0075L265.7 68.4104L273.584 74.7862L280.495 67.145L278.305 64.3709V45.2193L280.106 44.3189L284.097 48.6992V67.4371L291.081 73.5208L297.846 65.8553H294.683L292.882 62.9351V42.4938L293.782 40.6201L291.982 40.9851L284.851 35.4611L278.086 42.4452L270.202 36.2154L263.68 43.5159H266.235L268.425 46.0711V64.8089L264.045 66.3176L261.271 64.1275V43.1022L262.171 41.8368L254.384 36.0694L248.008 42.8345L250.199 43.5159L252.608 46.4361ZM387.569 66.1473L385.379 63.3731V44.2459L387.179 43.3456L391.17 47.7258V66.561L398.154 72.5717L404.895 64.9062H401.732L399.931 61.986V41.5448L400.831 39.744L399.031 40.036L392.119 34.5607L385.379 41.5448L377.494 35.3151L370.972 42.6155H373.528L375.718 45.1707V64.0058L373.041 67.6074L381.363 73.0827L387.569 66.1473ZM299.306 66.2933C300.236 66.2797 301.162 66.4026 302.056 66.6583C302.941 66.9427 303.766 67.3882 304.49 67.9724C305.293 68.6051 305.877 69.1892 306.242 69.7732C306.607 70.3572 306.923 71.1359 307.215 72.1337L303.322 77.171L299.185 82.7193C300.015 82.2018 300.929 81.8314 301.886 81.6243C302.616 81.5026 303.735 81.4296 305.195 81.4296C306.714 81.5201 308.198 81.9262 309.551 82.622C310.85 83.349 311.978 84.3445 312.861 85.5422C315.294 84.6418 318.044 82.622 321.232 79.5315C324.42 76.4409 326.002 73.8858 326.002 71.866C325.759 70.7575 325.391 69.6799 324.907 68.6538C324.174 66.8367 323.802 64.8944 323.812 62.9351V39.5737L313.348 33.0519L300.207 42.3722V64.5899L299.306 66.2933ZM325.199 40.6201H329.579V66.6583L328.532 68.6781H331.088L336.563 72.8881L343.863 64.8576H340.797L338.777 62.6674V41.1554L343.206 35.6801H338.777V21.3225L329.847 29.645V35.3394L325.199 40.6201ZM344.18 66.2933L353.476 72.8637L369.683 61.5237V39.452L368.028 39.817L360.241 33.2466L345.47 43.4672V65.0036L344.18 66.2933ZM420.348 29.061V36.0451C419.23 36.0205 418.115 36.1599 417.038 36.4588C416.138 36.7021 415.286 37.2618 414.459 38.0649C413.631 38.8679 413.145 39.7683 412.999 40.8391C412.853 41.9098 412.755 43.2725 412.755 44.976C412.755 45.706 412.731 46.1441 412.682 46.4361C413.777 44.684 415.311 43.9539 417.257 44.2459C418.571 44.4406 419.593 44.976 420.324 45.9007V57.5328C418.041 58.7145 416.002 60.3162 414.313 62.2537C412.415 64.5169 411.149 66.8287 410.492 69.2378C411.34 68.569 412.244 67.9746 413.193 67.4614C413.923 67.0964 414.994 66.7313 416.357 66.2933L418.06 65.8066C418.717 65.6363 419.472 65.5633 420.324 65.5633V88L430.155 79.9695L433.464 82.403V69.6272L437.674 71.0873L451.862 61.256V28.1849L442.785 20.8845L433.464 28.6716V24.5347L431.664 23.026V29.5964L430.155 30.6428V23.7317L422.489 17.8913L413.412 26.8222C414.143 26.3355 414.946 26.1408 415.724 26.1408C416.381 26.1408 416.99 26.2382 417.598 26.4328C418.961 26.9195 419.837 27.7956 420.275 28.988L420.348 29.061ZM453.151 67.0234L462.471 73.5451L478.776 62.2051V40.2064L477.121 40.4984L469.237 33.9766L454.441 44.1973V65.7336L453.151 67.0234ZM496.224 35.1447C495.257 34.6671 494.329 34.1138 493.45 33.4899L481.282 42.0558V56.608L482.329 57.5084H489.629L480.139 73.9345C481.185 73.0341 482.085 72.3527 482.767 71.9147C484.109 71.0556 485.676 70.6151 487.269 70.6493C488.826 70.6493 490.092 70.8439 491.089 71.2089C492.087 71.574 493.109 72.2554 494.155 73.2044L506.153 63.7625V48.9426L505.252 48.0422H497.222V47.3121L504.352 34.7797C503.622 35.2177 502.989 35.5097 502.551 35.5584C501.833 35.6535 501.109 35.6942 500.385 35.6801H498.803C497.83 35.6801 496.93 35.5097 496.175 35.1447H496.224ZM506.445 40.9851H510.825V67.0234L509.778 69.0431H512.334L517.736 73.2531L524.866 65.2226H521.8L519.78 63.0324V41.4961L524.16 36.0208H519.78V21.6632L510.849 29.9857V35.6801L506.445 40.9851ZM173.495 41.6664L179.336 46.0467V63.5678L177.462 65.5876L173.471 62.1321V41.6908L173.495 41.6664ZM318.774 72.45C319.991 73.3018 320.575 74.3968 320.575 75.6866C320.575 76.2949 320.526 76.733 320.429 77.025C320.137 77.463 319.894 77.755 319.748 77.9254C319.34 78.3343 318.81 78.5992 318.239 78.6797C317.582 78.7771 316.73 78.4364 315.684 77.755C314.637 77.0737 313.056 76.66 310.963 76.66C309.6 76.66 308.383 76.7816 307.312 77.025C306.113 77.3143 304.953 77.7473 303.857 78.3147L314.808 64.8089V66.5123C314.79 67.3478 314.88 68.182 315.075 68.9945C315.246 69.6515 315.635 70.2599 316.243 70.8683L318.799 72.45H318.774ZM309.089 40.7661L314.783 44.976V61.9374L313.129 63.7382L309.089 59.6742V40.7661ZM82.6532 53.9069V42.9562L88.1285 49.8673L82.6532 53.9069ZM211.214 41.4961L206.347 50.573H202.527V40.7417C204.035 41.7151 205.641 42.2018 207.394 42.2018C208.805 42.2018 210.143 41.9585 211.458 41.5204L211.214 41.4961ZM354.352 40.8877L360.192 45.3167V62.8378L358.318 64.8576L354.327 61.329V40.8877H354.352ZM203.476 56.0483H208.951V65.7336C208.181 65.4633 207.392 65.2517 206.591 65.1009C205.506 65.0115 204.418 64.979 203.33 65.0036C202.372 64.9886 201.417 65.0866 200.482 65.2956C199.679 65.4903 198.73 65.8309 197.635 66.269L203.476 56.0483ZM429.911 35.6071L431.42 34.3417V77.171L429.911 76.2706V35.6071ZM433.221 33.1736L437.796 30.2534L441.105 32.6869V60.9153L438.55 59.4552L436.896 58.9199C435.669 58.6281 434.444 58.328 433.221 58.0195V33.1979V33.1736ZM32.1827 36.4831C32.6694 36.4831 33.0831 36.4345 33.3994 36.3371V63.7868C31.5087 64.7261 29.427 65.2174 27.3157 65.2226C26.099 65.2226 24.8092 65.0766 23.5681 64.7846C22.3271 64.4925 21.3293 64.0545 20.648 63.5678L29.2138 55.0019V36.2641C29.5712 36.4675 29.9713 36.5842 30.3819 36.6048L31.258 36.6291L32.1827 36.4831ZM463.08 41.5934L468.92 45.9737V63.4948L467.119 65.5146L463.056 62.059L463.08 41.5934ZM123.511 34.585L126.286 32.3949L132.053 38.2352V65.1739L129.717 67.6074L123.487 61.5967L123.511 34.585ZM497.441 41.7151C498.098 41.6178 498.706 41.4718 499.314 41.1798L494.447 50.2566H490.627V40.4254C492.113 41.3635 493.834 41.8614 495.591 41.8611C496.292 41.8654 496.991 41.8165 497.684 41.7151H497.441ZM491.844 55.7563H497.319V65.4416C496.552 65.1642 495.762 64.9526 494.959 64.8089C494.423 64.7359 493.352 64.6872 491.698 64.6872C490.74 64.6699 489.784 64.7679 488.85 64.9792C487.902 65.2305 486.974 65.556 486.076 65.9526L491.844 55.7563ZM143.223 34.585L145.899 32.3949L151.74 38.2352V65.1739L149.306 67.6074L143.15 61.5967L143.223 34.585Z" fill="black"/>
</svg>
