<svg width="131" height="39" viewBox="0 0 131 39" fill="none" xmlns="http://www.w3.org/2000/svg">
<g clip-path="url(#clip0_30_2)">
<path d="M125.685 39H5.31481C2.61851 39 0.5 36.855 0.5 34.125V4.875C0.5 2.145 2.61851 0 5.31481 0H125.685C128.381 0 130.5 2.145 130.5 4.875V34.125C130.5 36.855 128.381 39 125.685 39Z" fill="black"/>
<path d="M46.1449 9.89753C46.1449 10.6739 45.9524 11.3531 45.4709 11.8383C44.8932 12.4205 44.2191 12.7117 43.3524 12.7117C42.4857 12.7117 41.8117 12.4205 41.2339 11.8383C40.6561 11.2561 40.3672 10.5768 40.3672 9.70345C40.3672 8.83012 40.6561 8.15086 41.2339 7.56864C41.8117 6.98642 42.4857 6.69531 43.3524 6.69531C43.7376 6.69531 44.1228 6.79234 44.5079 6.98642C44.8932 7.18049 45.182 7.37457 45.3747 7.66568L44.8932 8.15086C44.5079 7.66568 44.0264 7.4716 43.3524 7.4716C42.7747 7.4716 42.1968 7.66568 41.8117 8.15086C41.3302 8.53901 41.1376 9.12123 41.1376 9.80049C41.1376 10.4798 41.3302 11.062 41.8117 11.4502C42.2932 11.8383 42.7747 12.1294 43.3524 12.1294C44.0264 12.1294 44.5079 11.9354 44.9894 11.4502C45.2783 11.1591 45.4709 10.7709 45.4709 10.2857H43.3524V9.50938H46.1449V9.89753ZM50.5747 7.4716H47.9747V9.31531H50.3821V9.99457H47.9747V11.8383H50.5747V12.6146H47.2043V6.79234H50.5747V7.4716ZM53.7524 12.6146H52.982V7.4716H51.3449V6.79234H55.3894V7.4716H53.7524V12.6146ZM58.1821 12.6146V6.79234H58.9524V12.6146H58.1821ZM62.2264 12.6146H61.4561V7.4716H59.8191V6.79234H63.7672V7.4716H62.1302V12.6146H62.2264ZM71.3746 11.8383C70.7968 12.4205 70.1228 12.7117 69.2561 12.7117C68.3894 12.7117 67.7153 12.4205 67.1376 11.8383C66.5598 11.2561 66.2709 10.5768 66.2709 9.70345C66.2709 8.83012 66.5598 8.15086 67.1376 7.56864C67.7153 6.98642 68.3894 6.69531 69.2561 6.69531C70.1228 6.69531 70.7968 6.98642 71.3746 7.56864C71.9524 8.15086 72.2413 8.83012 72.2413 9.70345C72.2413 10.5768 71.9524 11.2561 71.3746 11.8383ZM67.7153 11.3531C68.1006 11.7413 68.6783 12.0324 69.2561 12.0324C69.8339 12.0324 70.4117 11.8383 70.7968 11.3531C71.1821 10.965 71.4709 10.3828 71.4709 9.70345C71.4709 9.0242 71.2783 8.44197 70.7968 8.05383C70.4117 7.66568 69.8339 7.37457 69.2561 7.37457C68.6783 7.37457 68.1006 7.56864 67.7153 8.05383C67.3302 8.44197 67.0413 9.0242 67.0413 9.70345C67.0413 10.3828 67.2339 10.965 67.7153 11.3531ZM73.3005 12.6146V6.79234H74.1672L76.9598 11.3531V6.79234H77.7302V12.6146H76.9598L73.9747 7.85975V12.6146H73.3005Z" fill="white" stroke="white" stroke-width="0.3" stroke-miterlimit="10"/>
<path d="M66.0781 21.1544C63.767 21.1544 61.9374 22.9011 61.9374 25.327C61.9374 27.6559 63.767 29.4997 66.0781 29.4997C68.3892 29.4997 70.2189 27.7529 70.2189 25.327C70.2189 22.804 68.3892 21.1544 66.0781 21.1544ZM66.0781 27.753C64.8264 27.753 63.767 26.6856 63.767 25.2301C63.767 23.7745 64.8264 22.7071 66.0781 22.7071C67.33 22.7071 68.3892 23.6775 68.3892 25.2301C68.3892 26.6856 67.33 27.753 66.0781 27.753ZM57.1226 21.1544C54.8115 21.1544 52.9819 22.9011 52.9819 25.327C52.9819 27.6559 54.8115 29.4997 57.1226 29.4997C59.4337 29.4997 61.2634 27.7529 61.2634 25.327C61.2634 22.804 59.4337 21.1544 57.1226 21.1544ZM57.1226 27.753C55.8707 27.753 54.8115 26.6856 54.8115 25.2301C54.8115 23.7745 55.8707 22.7071 57.1226 22.7071C58.3745 22.7071 59.4337 23.6775 59.4337 25.2301C59.4337 26.6856 58.3745 27.753 57.1226 27.753ZM46.4337 22.416V24.1625H50.5745C50.4781 25.1329 50.093 25.9092 49.6115 26.3944C49.0337 26.9766 48.0707 27.656 46.4337 27.656C43.8337 27.656 41.9077 25.6181 41.9077 22.9981C41.9077 20.3781 43.93 18.3403 46.4337 18.3403C47.7819 18.3403 48.8411 18.9227 49.6115 19.6019L50.8634 18.3403C49.8041 17.37 48.456 16.5938 46.53 16.5938C43.0634 16.5938 40.0781 19.5048 40.0781 22.9981C40.0781 26.4914 43.0634 29.4025 46.53 29.4025C48.456 29.4025 49.8041 28.8203 50.9596 27.5588C52.1152 26.3944 52.5004 24.7449 52.5004 23.4834C52.5004 23.0952 52.5004 22.7071 52.4041 22.416H46.4337ZM90.1522 23.7745C89.767 22.8041 88.8041 21.1544 86.6856 21.1544C84.567 21.1544 82.8337 22.804 82.8337 25.327C82.8337 27.6559 84.567 29.4997 86.8781 29.4997C88.7078 29.4997 89.8634 28.3352 90.2485 27.656L88.9004 26.6856C88.4189 27.3649 87.8411 27.85 86.8781 27.85C85.9152 27.85 85.3374 27.4619 84.856 26.5886L90.3449 24.2596L90.1522 23.7745ZM84.5671 25.1329C84.5671 23.5803 85.8189 22.7071 86.6856 22.7071C87.3596 22.7071 88.0337 23.0952 88.2264 23.5804L84.5671 25.1329ZM80.0411 29.1115H81.8707V16.9818H80.0411V29.1115ZM77.1522 22.0278C76.6707 21.5427 75.9004 21.0574 74.9374 21.0574C72.9152 21.0574 70.9892 22.9012 70.9892 25.2301C70.9892 27.5589 72.8189 29.3055 74.9374 29.3055C75.9004 29.3055 76.6707 28.8203 77.056 28.3351H77.1522V28.9174C77.1522 30.47 76.2856 31.3433 74.9374 31.3433C73.8781 31.3433 73.1077 30.5671 72.9152 29.8878L71.3745 30.5671C71.856 31.6345 73.0115 32.993 75.0337 32.993C77.1522 32.993 78.8856 31.7315 78.8856 28.7234V21.3486H77.1522V22.0278ZM75.0337 27.753C73.7819 27.753 72.7226 26.6856 72.7226 25.2301C72.7226 23.7745 73.7819 22.7071 75.0337 22.7071C76.2856 22.7071 77.2485 23.7745 77.2485 25.2301C77.2485 26.6856 76.2856 27.753 75.0337 27.753ZM98.53 16.9818H94.1967V29.1115H96.0264V24.5508H98.53C100.552 24.5508 102.478 23.0951 102.478 20.7663C102.478 18.4374 100.552 16.9818 98.53 16.9818ZM98.6264 22.8041H96.0264V18.6315H98.6264C99.9746 18.6315 100.745 19.796 100.745 20.6693C100.648 21.7367 99.8783 22.8041 98.6264 22.8041ZM109.701 21.0574C108.352 21.0574 107.005 21.6396 106.522 22.9011L108.16 23.5804C108.545 22.9012 109.122 22.7071 109.797 22.7071C110.76 22.7071 111.626 23.2892 111.722 24.2596V24.3566C111.433 24.1625 110.663 23.8715 109.893 23.8715C108.16 23.8715 106.426 24.8419 106.426 26.5886C106.426 28.2382 107.871 29.3055 109.412 29.3055C110.663 29.3055 111.241 28.7233 111.722 28.1411H111.818V29.1115H113.552V24.4538C113.36 22.3189 111.722 21.0574 109.701 21.0574ZM109.508 27.753C108.93 27.753 108.063 27.4619 108.063 26.6856C108.063 25.7152 109.122 25.424 109.99 25.424C110.76 25.424 111.145 25.6182 111.626 25.8123C111.433 26.9767 110.471 27.753 109.508 27.753ZM119.618 21.3486L117.597 26.5886H117.501L115.382 21.3486H113.456L116.633 28.7234L114.805 32.7989H116.633L121.545 21.3486H119.618ZM103.441 29.1115H105.271V16.9818H103.441V29.1115Z" fill="white"/>
<path d="M10.516 7.27734C10.2272 7.56845 10.1309 8.05363 10.1309 8.63585V30.0811C10.1309 30.6633 10.3235 31.1485 10.6124 31.4396L10.7086 31.5366L22.6494 19.504V19.31L10.516 7.27734Z" fill="url(#paint0_linear_30_2)"/>
<path d="M26.5009 23.5802L22.5527 19.6017V19.3105L26.5009 15.332L26.5971 15.4291L31.3157 18.1461C32.6639 18.9224 32.6639 20.1839 31.3157 20.9602L26.5009 23.5802Z" fill="url(#paint1_linear_30_2)"/>
<path d="M26.5971 23.4837L22.5526 19.4082L10.5156 31.5378C10.9971 32.023 11.6711 32.023 12.5379 31.6348L26.5971 23.4837Z" fill="url(#paint2_linear_30_2)"/>
<path d="M26.5971 15.332L12.5379 7.27797C11.6711 6.79278 10.9971 6.88982 10.5156 7.37501L22.5526 19.4076L26.5971 15.332Z" fill="url(#paint3_linear_30_2)"/>
<path opacity="0.2" d="M26.5008 23.3867L12.5379 31.3437C11.7675 31.8289 11.0934 31.7319 10.6119 31.3437L10.5156 31.4408L10.6119 31.5378C11.0934 31.9259 11.7675 32.023 12.5379 31.5378L26.5008 23.3867Z" fill="black"/>
<path opacity="0.12" d="M10.516 31.3437C10.2272 31.0526 10.1309 30.5674 10.1309 29.9852V30.0822C10.1309 30.6645 10.3235 31.1497 10.6124 31.4408V31.3437H10.516ZM31.316 20.6697L26.5012 23.3867L26.5975 23.4837L31.316 20.7667C31.9901 20.3785 32.279 19.8934 32.279 19.4082C32.279 19.8934 31.8939 20.2815 31.316 20.6697Z" fill="black"/>
<path opacity="0.25" d="M12.5382 7.37494L31.316 18.1461C31.8939 18.5342 32.279 18.9223 32.279 19.4075C32.279 18.9223 31.9901 18.4372 31.316 18.049L12.5382 7.2779C11.1901 6.50161 10.1309 7.08383 10.1309 8.63642V8.73346C10.1309 7.2779 11.1901 6.59864 12.5382 7.37494Z" fill="white"/>
</g>
<defs>
<linearGradient id="paint0_linear_30_2" x1="21.4939" y1="8.45148" x2="5.20859" y2="24.6115" gradientUnits="userSpaceOnUse">
<stop stop-color="#00A0FF"/>
<stop offset="0.007" stop-color="#00A1FF"/>
<stop offset="0.26" stop-color="#00BEFF"/>
<stop offset="0.512" stop-color="#00D2FF"/>
<stop offset="0.76" stop-color="#00DFFF"/>
<stop offset="1" stop-color="#00E3FF"/>
</linearGradient>
<linearGradient id="paint1_linear_30_2" x1="33.0817" y1="19.4086" x2="9.78094" y2="19.4086" gradientUnits="userSpaceOnUse">
<stop stop-color="#FFE000"/>
<stop offset="0.409" stop-color="#FFBD00"/>
<stop offset="0.775" stop-color="#FFA500"/>
<stop offset="1" stop-color="#FF9C00"/>
</linearGradient>
<linearGradient id="paint2_linear_30_2" x1="24.4083" y1="21.6361" x2="2.32523" y2="43.5506" gradientUnits="userSpaceOnUse">
<stop stop-color="#FF3A44"/>
<stop offset="1" stop-color="#C31162"/>
</linearGradient>
<linearGradient id="paint3_linear_30_2" x1="7.52752" y1="0.170979" x2="17.3891" y2="9.95733" gradientUnits="userSpaceOnUse">
<stop stop-color="#32A071"/>
<stop offset="0.069" stop-color="#2DA771"/>
<stop offset="0.476" stop-color="#15CF74"/>
<stop offset="0.801" stop-color="#06E775"/>
<stop offset="1" stop-color="#00F076"/>
</linearGradient>
<clipPath id="clip0_30_2">
<rect width="130" height="39" fill="white" transform="translate(0.5)"/>
</clipPath>
</defs>
</svg>
