<svg width="131" height="39" viewBox="0 0 131 39" fill="none" xmlns="http://www.w3.org/2000/svg">
<g clip-path="url(#clip0_30_14)">
<path d="M130.5 35.0906C130.5 35.6044 130.403 36.1131 130.216 36.5877C130.028 37.0622 129.752 37.4934 129.404 37.8565C129.056 38.2195 128.643 38.5074 128.189 38.7036C127.735 38.8999 127.249 39.0005 126.757 39H4.24842C3.25548 39.0012 2.30278 38.5899 1.59985 37.8568C0.896908 37.1237 0.501294 36.1287 0.5 35.0906V3.9145C0.501294 2.87601 0.896753 1.88051 1.59955 1.14658C2.30235 0.412642 3.25503 0.00027014 4.24842 0H126.756C127.248 0 127.734 0.101259 128.188 0.297989C128.643 0.494728 129.056 0.783089 129.404 1.14659C129.751 1.5101 130.027 1.94164 130.215 2.41656C130.403 2.89148 130.5 3.40048 130.499 3.9145L130.5 35.0906Z" fill="black"/>
<path d="M29.5273 19.2564C29.4993 16.1193 32.07 14.5931 32.1875 14.5221C30.7317 12.3777 28.4752 12.0847 27.6823 12.0614C25.787 11.8599 23.9487 13.207 22.9833 13.207C21.9986 13.207 20.512 12.0808 18.9097 12.1139C16.8479 12.146 14.9189 13.3521 13.861 15.2248C11.6777 19.0433 13.3061 24.6548 15.3978 27.7413C16.4442 29.2539 17.6668 30.9407 19.2672 30.8814C20.8328 30.8172 21.4177 29.874 23.3071 29.874C25.1791 29.874 25.7283 30.8814 27.3604 30.8435C29.0408 30.8172 30.0986 29.325 31.1084 27.7997C32.3176 26.0681 32.8031 24.3608 32.8224 24.2732C32.7838 24.2596 29.5601 23.0156 29.5273 19.2564ZM26.4441 10.0309C27.2863 8.967 27.8624 7.51959 27.7025 6.05078C26.4836 6.10529 24.9594 6.90248 24.0817 7.94301C23.3051 8.85992 22.6115 10.3628 22.7906 11.7761C24.1598 11.8793 25.5655 11.0783 26.4441 10.0309Z" fill="white"/>
<path d="M52.2075 30.6649H50.0195L48.8209 26.86H44.6549L43.5131 30.6649H41.3828L45.5113 17.7112H48.0607L52.2075 30.6649ZM48.4596 25.2637L47.3757 21.8812C47.261 21.5357 47.0452 20.7219 46.7293 19.441H46.6907C46.5635 19.9919 46.3602 20.8056 46.0818 21.8812L45.0161 25.2637H48.4596ZM62.804 25.8798C62.804 27.4683 62.3772 28.724 61.5226 29.6458C60.7576 30.4663 59.8066 30.8761 58.6726 30.8761C57.448 30.8761 56.5673 30.4352 56.0326 29.5513V34.4523H53.9785V24.3944C53.9785 23.3967 53.9525 22.3737 53.9023 21.3244H55.7089L55.8236 22.805H55.8621C56.5471 21.6895 57.5867 21.1318 58.9819 21.1318C60.0725 21.1318 60.983 21.5668 61.7114 22.4379C62.4389 23.3111 62.804 24.4577 62.804 25.8798ZM60.7113 25.9557C60.7113 25.0466 60.509 24.2971 60.1024 23.7063C59.6582 23.0921 59.0618 22.7845 58.3142 22.7845C57.8074 22.7845 57.3468 22.9558 56.9354 23.2936C56.523 23.6342 56.2533 24.079 56.127 24.63C56.0707 24.836 56.0387 25.0481 56.0317 25.2618V26.8201C56.0317 27.4985 56.2379 28.0718 56.6502 28.541C57.0625 29.0082 57.5983 29.2428 58.2573 29.2428C59.031 29.2428 59.6332 28.9401 60.0638 28.3395C60.4955 27.737 60.7113 26.9428 60.7113 25.9557ZM73.438 25.8798C73.438 27.4683 73.0111 28.724 72.1566 29.6458C71.3906 30.4663 70.4406 30.8761 69.3056 30.8761C68.081 30.8761 67.2004 30.4352 66.6657 29.5513V34.4523H64.6115V24.3944C64.6115 23.3967 64.5855 22.3737 64.5354 21.3244H66.3419L66.4566 22.805H66.4951C67.1792 21.6895 68.2188 21.1318 69.6149 21.1318C70.7045 21.1318 71.615 21.5668 72.3454 22.4379C73.0718 23.3111 73.438 24.4577 73.438 25.8798ZM71.3444 25.9557C71.3444 25.0466 71.141 24.2971 70.7345 23.7063C70.2902 23.0921 69.6958 22.7845 68.9481 22.7845C68.4413 22.7845 67.9808 22.9558 67.5675 23.2936C67.1551 23.6342 66.8863 24.079 66.76 24.63C66.6975 24.8869 66.6637 25.0962 66.6637 25.2618V26.8201C66.6637 27.4985 66.8708 28.0718 67.2812 28.541C67.6937 29.0072 68.2293 29.2428 68.8903 29.2428C69.6649 29.2428 70.2672 28.9401 70.6969 28.3395C71.1285 27.737 71.3444 26.9428 71.3444 25.9557ZM85.3274 27.0313C85.3274 28.1341 84.9458 29.0306 84.1875 29.7226C83.3532 30.478 82.1883 30.8566 80.6949 30.8566C79.3152 30.8566 78.2092 30.588 77.3747 30.0497L77.8497 28.3201C78.7506 28.8593 79.7401 29.128 80.8173 29.128C81.5919 29.128 82.1941 28.9507 82.6238 28.5994C83.0545 28.247 83.2723 27.7759 83.2723 27.188C83.2723 26.6614 83.0921 26.2205 82.7385 25.8613C82.383 25.5031 81.7952 25.1693 80.9695 24.8626C78.7246 24.0167 77.6012 22.7796 77.6012 21.1522C77.6012 20.0892 77.9981 19.219 78.7901 18.5387C79.5821 17.8592 80.6324 17.5195 81.9387 17.5195C83.1056 17.5195 84.0778 17.7249 84.8494 18.1347L84.334 19.8264C83.6075 19.4293 82.7876 19.2307 81.8704 19.2307C81.1459 19.2307 80.5774 19.4108 80.1708 19.769C79.8288 20.0892 79.6553 20.4795 79.6553 20.9429C79.6553 21.4539 79.8529 21.8783 80.2459 22.2111C80.5871 22.5178 81.2094 22.8517 82.1093 23.2098C83.2135 23.6596 84.0247 24.1832 84.544 24.7847C85.0672 25.3863 85.3274 26.1368 85.3274 27.0313ZM92.1363 22.8818H89.8721V27.4167C89.8721 28.5702 90.271 29.1454 91.0706 29.1454C91.4378 29.1454 91.7423 29.1143 91.9831 29.0491L92.04 30.625C91.6353 30.7778 91.1025 30.8547 90.4425 30.8547C89.6313 30.8547 88.9972 30.6045 88.5396 30.1042C88.0839 29.6039 87.8546 28.7658 87.8546 27.5862V22.8779H86.5057V21.3206H87.8546V19.6103L89.8721 18.9952V21.3206H92.1363V22.8818ZM102.332 25.9178C102.332 27.3535 101.925 28.5322 101.114 29.454C100.265 30.4031 99.136 30.8761 97.7284 30.8761C96.3699 30.8761 95.2897 30.4216 94.4844 29.5134C93.6789 28.6033 93.2761 27.4566 93.2761 26.0735C93.2761 24.6262 93.6924 23.4406 94.5219 22.5187C95.3534 21.5961 96.473 21.1346 97.8806 21.1346C99.2372 21.1346 100.327 21.5902 101.152 22.4993C101.94 23.3811 102.332 24.52 102.332 25.9178ZM100.203 25.9655C100.203 25.1099 100.02 24.3759 99.6525 23.7618C99.2217 23.0201 98.6052 22.6492 97.8064 22.6492C96.9836 22.6492 96.3525 23.0201 95.9228 23.7618C95.5547 24.3759 95.3717 25.1225 95.3717 26.0044C95.3717 26.861 95.5547 27.5968 95.9228 28.2091C96.3669 28.9507 96.9865 29.3217 97.7891 29.3217C98.5743 29.3217 99.19 28.943 99.6351 28.1905C100.013 27.5618 100.203 26.823 100.203 25.9655ZM109.011 23.1495C108.798 23.1105 108.582 23.0913 108.364 23.0921C107.641 23.0921 107.083 23.3666 106.69 23.9194C106.348 24.4061 106.177 25.0213 106.177 25.7639V30.6649H104.123V24.2659C104.125 23.2855 104.105 22.305 104.063 21.3254H105.853L105.928 23.1125H105.985C106.202 22.4983 106.543 22.0029 107.012 21.632C107.44 21.308 107.961 21.1325 108.496 21.1318C108.686 21.1318 108.858 21.1453 109.009 21.1697L109.011 23.1495ZM118.199 25.5527C118.204 25.8682 118.178 26.1835 118.124 26.494H111.961C111.984 27.4167 112.283 28.1234 112.855 28.6101C113.374 29.0442 114.046 29.2622 114.87 29.2622C115.784 29.2622 116.615 29.1163 117.364 28.8213L117.686 30.2609C116.811 30.6464 115.778 30.8381 114.586 30.8381C113.153 30.8381 112.028 30.4118 111.208 29.5611C110.392 28.7094 109.982 27.5647 109.982 26.1309C109.982 24.7234 110.362 23.5506 111.125 22.6151C111.922 21.6165 113.001 21.1171 114.358 21.1171C115.69 21.1171 116.699 21.6165 117.383 22.6151C117.925 23.4065 118.199 24.3876 118.199 25.5527ZM116.24 25.0145C116.254 24.3983 116.12 23.8678 115.84 23.4191C115.485 22.841 114.939 22.5528 114.205 22.5528C113.533 22.5528 112.987 22.8341 112.57 23.3987C112.228 23.8474 112.025 24.3866 111.962 25.0126L116.24 25.0145Z" fill="white"/>
<path d="M44.0591 13.1321C43.4878 13.1321 42.9935 13.1039 42.582 13.0562V6.79357C43.1575 6.70377 43.7389 6.65951 44.3212 6.66118C46.6769 6.66118 47.7618 7.83215 47.7618 9.74092C47.7618 11.9427 46.4803 13.1321 44.0591 13.1321ZM44.4041 7.46421C44.0861 7.46421 43.8153 7.48368 43.5908 7.5304V12.2912C43.7122 12.3107 43.9454 12.3194 44.2729 12.3194C45.8165 12.3194 46.6952 11.4316 46.6952 9.76916C46.6952 8.28671 45.9003 7.46421 44.4041 7.46421ZM51.1426 13.1798C49.8149 13.1798 48.9546 12.1783 48.9546 10.8184C48.9546 9.40122 49.8333 8.39087 51.2178 8.39087C52.5262 8.39087 53.4059 9.34476 53.4059 10.7435C53.4059 12.1783 52.4992 13.1798 51.1426 13.1798ZM51.1811 9.13646C50.4518 9.13646 49.9845 9.8256 49.9845 10.7893C49.9845 11.7344 50.4615 12.4236 51.1716 12.4236C51.8816 12.4236 52.3585 11.6867 52.3585 10.7698C52.3585 9.83534 51.8913 9.13646 51.1811 9.13646ZM60.9769 8.48528L59.5558 13.0757H58.6299L58.0412 11.0823C57.8948 10.5947 57.7729 10.0998 57.676 9.59978H57.6568C57.5826 10.1001 57.4419 10.6013 57.2925 11.0823L56.6663 13.0757H55.7307L54.3934 8.48528H55.4311L55.9456 10.6675C56.067 11.1874 56.1692 11.6779 56.254 12.1412H56.2732C56.3474 11.7548 56.4688 11.272 56.647 10.6773L57.2925 8.48625H58.1154L58.733 10.6306C58.8823 11.1504 59.0037 11.6604 59.0981 12.1422H59.1251C59.1906 11.6701 59.2937 11.1689 59.4334 10.6306L59.9855 8.48625L60.9769 8.48528ZM66.2086 13.0757H65.1989V10.4398C65.1989 9.62802 64.8905 9.22114 64.2826 9.22114C63.6843 9.22114 63.273 9.74092 63.273 10.3454V13.0757H62.2632V9.79738C62.2632 9.39148 62.2536 8.95639 62.2256 8.4843H63.1139L63.1611 9.19292H63.1891C63.4607 8.70234 64.0119 8.39087 64.6295 8.39087C65.5833 8.39087 66.2096 9.1277 66.2096 10.3269L66.2086 13.0757ZM68.9932 13.0757H67.9824V6.37891H68.9932V13.0757ZM72.6746 13.1798C71.3479 13.1798 70.4865 12.1783 70.4865 10.8184C70.4865 9.40122 71.3652 8.39087 72.7487 8.39087C74.0582 8.39087 74.9368 9.34476 74.9368 10.7435C74.9378 12.1783 74.0303 13.1798 72.6746 13.1798ZM72.7122 9.13646C71.9827 9.13646 71.5155 9.8256 71.5155 10.7893C71.5155 11.7344 71.9934 12.4236 72.7016 12.4236C73.4126 12.4236 73.8886 11.6867 73.8886 10.7698C73.8895 9.83534 73.4232 9.13646 72.7122 9.13646ZM78.9179 13.0757L78.8447 12.5471H78.8178C78.5095 12.9725 78.0595 13.1798 77.4891 13.1798C76.6749 13.1798 76.0968 12.6036 76.0968 11.8288C76.0968 10.6958 77.069 10.1098 78.7522 10.1098V10.0251C78.7522 9.42069 78.4352 9.11797 77.809 9.11797C77.361 9.11797 76.9678 9.23185 76.622 9.45864L76.4168 8.788C76.8368 8.52324 77.361 8.39087 77.9767 8.39087C79.1636 8.39087 79.7629 9.02355 79.7629 10.2899V11.9806C79.7629 12.444 79.7832 12.8032 79.8285 13.0767L78.9179 13.0757ZM78.7792 10.7893C77.6578 10.7893 77.095 11.0637 77.095 11.7149C77.095 12.1967 77.3851 12.4323 77.7878 12.4323C78.3014 12.4323 78.7792 12.0361 78.7792 11.4978V10.7893ZM84.6661 13.0757L84.6189 12.3389H84.5909C84.301 12.8957 83.8135 13.1798 83.1323 13.1798C82.0367 13.1798 81.2255 12.2065 81.2255 10.837C81.2255 9.40122 82.0666 8.38989 83.2151 8.38989C83.823 8.38989 84.2537 8.59722 84.4966 9.01382H84.5168V6.37891H85.5274V11.8386C85.5274 12.2824 85.5381 12.698 85.565 13.0757H84.6661ZM84.5168 10.3746C84.5168 9.73217 84.0957 9.18416 83.4531 9.18416C82.7045 9.18416 82.2468 9.85481 82.2468 10.799C82.2468 11.7246 82.7218 12.3583 83.4328 12.3583C84.0678 12.3583 84.5168 11.8006 84.5168 11.1396V10.3746ZM91.9356 13.1798C90.6089 13.1798 89.7485 12.1783 89.7485 10.8184C89.7485 9.40122 90.6272 8.39087 92.0108 8.39087C93.3201 8.39087 94.1988 9.34476 94.1988 10.7435C94.1998 12.1783 93.2931 13.1798 91.9356 13.1798ZM91.9732 9.13646C91.2448 9.13646 90.7775 9.8256 90.7775 10.7893C90.7775 11.7344 91.2544 12.4236 91.9635 12.4236C92.6746 12.4236 93.1505 11.6867 93.1505 10.7698C93.1524 9.83534 92.6852 9.13646 91.9732 9.13646ZM99.629 13.0757H98.6183V10.4398C98.6183 9.62802 98.31 9.22114 97.702 9.22114C97.1037 9.22114 96.6933 9.74092 96.6933 10.3454V13.0757H95.6826V9.79738C95.6826 9.39148 95.6729 8.95639 95.645 8.4843H96.5334L96.5806 9.19292H96.6085C96.8793 8.70234 97.4313 8.38989 98.048 8.38989C99.0018 8.38989 99.629 9.12673 99.629 10.3259V13.0757ZM106.423 9.25034H105.312V11.4793C105.312 12.0468 105.507 12.3301 105.9 12.3301C106.077 12.3301 106.227 12.3107 106.348 12.2824L106.375 13.0572C106.18 13.1332 105.918 13.1711 105.592 13.1711C104.797 13.1711 104.32 12.7272 104.32 11.565V9.25034H103.657V8.48528H104.32V7.64429L105.312 7.34157V8.4843H106.423V9.25034ZM111.768 13.0757H110.759V10.4593C110.759 9.63775 110.452 9.22212 109.843 9.22212C109.319 9.22212 108.832 9.58129 108.832 10.3084V13.0757H107.823V6.37891H108.832V9.13646H108.852C109.17 8.63615 109.631 8.38989 110.219 8.38989C111.18 8.38989 111.768 9.14523 111.768 10.3454V13.0757ZM117.244 11.0258H114.215C114.234 11.895 114.803 12.3856 115.646 12.3856C116.094 12.3856 116.507 12.3096 116.87 12.1685L117.028 12.8771C116.598 13.0659 116.092 13.1603 115.503 13.1603C114.083 13.1603 113.242 12.2532 113.242 10.8466C113.242 9.43918 114.103 8.38113 115.39 8.38113C116.551 8.38113 117.279 9.25034 117.279 10.5635C117.286 10.7183 117.274 10.8736 117.244 11.0258ZM116.319 10.2987C116.319 9.59005 115.964 9.08974 115.32 9.08974C114.74 9.08974 114.281 9.59978 114.216 10.2987H116.319Z" fill="white"/>
</g>
<defs>
<clipPath id="clip0_30_14">
<rect width="130" height="39" fill="white" transform="translate(0.5)"/>
</clipPath>
</defs>
</svg>
